# xmcd
#
# Track frame offsets: 
#        150
#        13370
#        22027
#        34025
#        44692
#        54995
#        67400
#        80995
#        94542
#        107920
#        118197
#        129842
#        144412
#        158162
#        170180
#        181255
#        193100
#        205807
#        214427
#        223372
#        236340
#
# Disc length: 3300 seconds
#
# Revision: 8
# Processed by: cddbd v1.5.2PL0 Copyright (c) Steve Scherf et al.
# Submitted via: ExactAudioCopyFreeDBPlugin 1.0
#
DISCID=490ce215
DTITLE=Various Artist - The Scepter Records Story [Capricorn box set]
DYEAR=1992
DGENRE=Rhythm and Blues
TTITLE0=Dionne Warwick - Don't Make Me Over
TTITLE1=King Curtis - Take the Last Train Home
TTITLE2=Chuck Jackson - Tell Him I'm Not Home
TTITLE3=The Rocky Fellers - Killer Joe
TTITLE4=The Shirelles - Foolish Little Girl
TTITLE5=The Kingsmen - Louie Louie
TTITLE6=Tommy Hunt - I Am a Witness
TTITLE7=Dionne Warwick - Anyone Who Had a Heart
TTITLE8=Maxine Brown - Since I Found You
TTITLE9=The Kingsmen - Money
TTITLE10=The Shirelles - Sha-La-La
TTITLE11=Tommy Hunt - Oh Lord What Are You Doing to Me
TTITLE12=Dionne Warwick - Walk on By
TTITLE13=Chuck Jackson - Beg Me
TTITLE14=The Kingsmen - Little Latin Lupe Lu
TTITLE15=Maxine Brown - Oh No Not My Baby
TTITLE16=Chuck Jackson - Since I Don't Have You (previously unreleased
TTITLE16=)
TTITLE17=Chuck Jackson and Maxine Brown - We Find Him Guilty
TTITLE18=The Kingsmen - The Jolly Green Giant
TTITLE19=Chuck Jackson and Maxine Brown - Something You Got
TTITLE20=Ronnie Milsap - Never Had it So Good
EXTD=YEAR: 1992 ID3G:  11
EXTT0=
EXTT1=
EXTT2=
EXTT3=
EXTT4=
EXTT5=
EXTT6=
EXTT7=
EXTT8=
EXTT9=
EXTT10=
EXTT11=
EXTT12=
EXTT13=
EXTT14=
EXTT15=
EXTT16=
EXTT17=
EXTT18=
EXTT19=
EXTT20=
PLAYORDER=
